#!OML:ASF G:\JayActor3\Patient Classification 1\Patient 1\Session 5\male.ASF
:FULLY-SPECIFIED
:DEGREES
573
root -7.14838 16.5901 -6.44661 756.21 -87.0309 -737.717
lowerback 27.5628 -0.716055 2.68975
upperback 5.9974 -0.654613 -0.0302558
thorax -8.56366 -0.562602 -1.33251
lowerneck 0.742527 -0.665989 1.4487
upperneck -5.88425 -0.822913 1.4904
head -1.95687 -0.498067 0.238627
rclavicle 6.26172e-015 8.00108e-015
rhumerus -30.6493 -3.4053 -87.316
rradius 28.2472
rwrist 0.97182
rhand -22.2291 -7.58177
rfingers 7.12502
rthumb 4.1875 -37.5204
lclavicle 6.26172e-015 8.00108e-015
lhumerus -33.1938 0.201086 86.2932
lradius 31.2346
lwrist 26.6927
lhand -19.1005 10.2764
lfingers 7.12502
lthumb 7.20812 40.1336
rfemur -38.2077 7.56444 27.0761
rtibia 50.2434
rfoot -24.1489 -12.162
rtoes 5.3738
lfemur -56.3955 4.07965 -21.632
ltibia 44.4876
lfoot -16.8577 3.81298
ltoes -17.7485
574
root -7.30693 16.5787 -6.44227 758.371 -87.1695 -740.011
lowerback 27.467 -0.674475 2.64054
upperback 6.03279 -0.623059 -0.0486828
thorax -8.47461 -0.546701 -1.33623
lowerneck 0.763617 -0.644422 1.46954
upperneck -5.92022 -0.79396 1.46801
head -1.97251 -0.484156 0.22782
rclavicle 1.11816e-014 -6.65929e-015
rhumerus -30.672 -3.45167 -87.3468
rradius 28.2047
rwrist 1.06593
rhand -22.2594 -7.58435
rfingers 7.12502
rthumb 4.1583 -37.5235
lclavicle 1.11816e-014 -6.65929e-015
lhumerus -33.3402 0.293735 86.208
lradius 31.1744
lwrist 26.7059
lhand -19.117 10.3001
lfingers 7.12502
lthumb 7.1922 40.1579
rfemur -37.4226 7.44259 27.2976
rtibia 50.2881
rfoot -24.6093 -12.0073
rtoes 5.13848
lfemur -56.2939 4.25152 -21.9756
ltibia 41.9121
lfoot -16.9539 4.20288
ltoes -18.1641
575
root -7.46836 16.5499 -6.43644 760.768 -87.2999 -742.555
lowerback 27.3816 -0.637883 2.59807
upperback 6.0634 -0.595452 -0.0689649
thorax -8.39644 -0.532897 -1.34436
lowerneck 0.799883 -0.620395 1.49589
upperneck -5.96313 -0.760851 1.45056
head -1.99313 -0.468539 0.217629
rclavicle -1.03865e-014 -2.06239e-014
rhumerus -30.704 -3.49963 -87.3788
rradius 28.1578
rwrist 1.15492
rhand -22.2343 -7.59681
rfingers 7.12502
rthumb 4.18248 -37.5355
lclavicle -1.03865e-014 -2.06239e-014
lhumerus -33.4985 0.368791 86.1266
lradius 31.112
lwrist 26.7503
lhand -19.1568 10.3166
lfingers 7.12502
lthumb 7.15383 40.1757
rfemur -36.639 7.33849 27.5126
rtibia 50.3615
rfoot -25.124 -11.8302
rtoes 5.0312
lfemur -56.1879 4.43896 -22.3354
ltibia 39.3774
lfoot -17.0482 4.50224
ltoes -18.4956
576
root -7.631 16.5354 -6.4313 763.456 -87.419 -745.402
lowerback 27.3028 -0.604733 2.56483
upperback 6.08916 -0.569074 -0.0895477
thorax -8.32713 -0.519894 -1.35755
lowerneck 0.847736 -0.59529 1.52397
upperneck -6.00305 -0.725481 1.44099
head -2.01483 -0.451982 0.209578
rclavicle -2.98177e-016 8.19987e-015
rhumerus -30.7535 -3.55455 -87.408
rradius 28.1156
rwrist 1.24078
rhand -22.2136 -7.61823
rfingers 7.12502
rthumb 4.20248 -37.5565
lclavicle -2.98177e-016 8.19987e-015
lhumerus -33.662 0.418699 86.0517
lradius 31.0416
lwrist 26.8068
lhand -19.2084 10.339
lfingers 7.12502
lthumb 7.10403 40.1997
rfemur -35.7635 7.25284 27.7123
rtibia 50.3397
rfoot -25.6531 -11.6418
rtoes 5.00961
lfemur -55.9576 4.65462 -22.7041
ltibia 36.8144
lfoot -17.1725 4.72873
ltoes -18.737
577
root -7.79579 16.5188 -6.42551 766.235 -87.5335 -748.357
lowerback 27.2335 -0.573084 2.53377
upperback 6.11085 -0.543702 -0.11313
thorax -8.26719 -0.507491 -1.37483
lowerneck 0.905531 -0.568357 1.55224
upperneck -6.03281 -0.687113 1.43524
head -2.035 -0.433855 0.202596
rclavicle 6.65929e-015 2.76311e-014
rhumerus -30.8261 -3.62207 -87.4323
rradius 28.0843
rwrist 1.31784
rhand -22.2108 -7.63254
rfingers 7.12502
rthumb 4.20523 -37.5708
lclavicle 6.65929e-015 2.76311e-014
lhumerus -33.8187 0.441645 85.9845
lradius 30.9502
lwrist 26.8472
lhand -19.2482 10.3691
lfingers 7.12502
lthumb 7.06558 40.2312
rfemur -34.8382 7.18792 27.8899
rtibia 50.2816
rfoot -26.1945 -11.4593
rtoes 5.02076
lfemur -55.6746 4.89366 -23.0997
ltibia 34.3078
lfoot -17.301 4.92007
ltoes -18.9828
